<?xml version="1.0" encoding="utf-8"?><!-- Uploaded to: SVG Repo, www.svgrepo.com, Generator: SVG Repo Mixer Tools -->
<svg fill="#000000" width="800px" height="800px" viewBox="0 0 24 24" id="water-tap" data-name="Line Color" xmlns="http://www.w3.org/2000/svg" class="icon line-color"><path id="secondary" d="M8,5h6M11,5V8.84" style="fill: none; stroke: rgb(44, 169, 188); stroke-linecap: round; stroke-linejoin: round; stroke-width: 2;"></path><path id="primary" d="M17,11H14.62a1,1,0,0,1-.9-.55l-.44-.9a1,1,0,0,0-.9-.55H9.62a1,1,0,0,0-.9.55l-.44.9a1,1,0,0,1-.9.55H3v4H16a1,1,0,0,1,1,1v2a1,1,0,0,0,1,1h2a1,1,0,0,0,1-1V15A4,4,0,0,0,17,11ZM3,9v8" style="fill: none; stroke: rgb(0, 0, 0); stroke-linecap: round; stroke-linejoin: round; stroke-width: 2;"></path></svg>